<?xml version="1.0" encoding="UTF-8" standalone="no"?>
<!-- Created with Inkscape (http://www.inkscape.org/) -->

<svg
   width="250mm"
   height="250mm"
   viewBox="0 0 250 250"
   version="1.1"
   id="svg1"
   inkscape:version="1.3 (0e150ed6c4, 2023-07-21)"
   sodipodi:docname="additiononall.svg"
   xmlns:inkscape="http://www.inkscape.org/namespaces/inkscape"
   xmlns:sodipodi="http://sodipodi.sourceforge.net/DTD/sodipodi-0.dtd"
   xmlns="http://www.w3.org/2000/svg"
   xmlns:svg="http://www.w3.org/2000/svg">
  <sodipodi:namedview
     id="namedview1"
     pagecolor="#ffffff"
     bordercolor="#000000"
     borderopacity="0.25"
     inkscape:showpageshadow="2"
     inkscape:pageopacity="0.0"
     inkscape:pagecheckerboard="0"
     inkscape:deskcolor="#d1d1d1"
     inkscape:document-units="mm"
     inkscape:lockguides="true"
     showgrid="true"
     inkscape:zoom="1"
     inkscape:cx="524.5"
     inkscape:cy="380.5"
     inkscape:window-width="1920"
     inkscape:window-height="1057"
     inkscape:window-x="-8"
     inkscape:window-y="-8"
     inkscape:window-maximized="1"
     inkscape:current-layer="layer1">
    <inkscape:grid
       id="grid1"
       units="mm"
       originx="0"
       originy="0"
       spacingx="0.99999999"
       spacingy="0.99999999"
       empcolor="#0099e5"
       empopacity="0.30196078"
       color="#0099e5"
       opacity="0.14901961"
       empspacing="5"
       dotted="false"
       gridanglex="30"
       gridanglez="30"
       visible="true"
       enabled="false" />
    <inkscape:grid
       id="grid5"
       units="mm"
       originx="0"
       originy="0"
       spacingx="9.9999999"
       spacingy="9.9999999"
       empcolor="#0099e5"
       empopacity="0.30196078"
       color="#0099e5"
       opacity="0.14901961"
       empspacing="5"
       dotted="true"
       gridanglex="30"
       gridanglez="30"
       visible="true" />
  </sodipodi:namedview>
  <defs
     id="defs1">
    <inkscape:path-effect
       effect="dashed_stroke"
       id="path-effect11"
       is_visible="true"
       lpeversion="1"
       numberdashes="3"
       holefactor="0"
       splitsegments="true"
       halfextreme="true"
       unifysegment="true"
       message="Добавить &lt;b&gt;«Заливку между многими LPE»&lt;/b&gt; для заливки." />
    <inkscape:path-effect
       effect="bounding_box"
       linkedpath=""
       id="path-effect10"
       is_visible="true"
       lpeversion="1.3"
       visualbounds="false" />
    <inkscape:path-effect
       effect="rough_hatches"
       id="path-effect9"
       is_visible="true"
       lpeversion="1.2"
       direction="80.000001,170 , -11.183333,11.1125"
       dist_rdm="0;1"
       growth="0"
       do_bend="true"
       bender="125,125 , 12.9375,12.170833"
       bottom_edge_variation="0;1"
       top_edge_variation="0;1"
       bottom_tgt_variation="0;1"
       top_tgt_variation="0;1"
       scale_bf="1"
       scale_bb="1"
       scale_tf="1"
       scale_tb="1"
       top_smth_variation="0;1"
       bottom_smth_variation="0;1"
       fat_output="true"
       stroke_width_top="1"
       stroke_width_bottom="1"
       front_thickness="1"
       back_thickness="1" />
    <inkscape:path-effect
       effect="slice"
       start_point="125,50"
       end_point="125,200"
       center_point="125,125"
       id="path-effect8"
       is_visible="true"
       lpeversion="1.2"
       lpesatellites=""
       allow_transforms="true" />
    <inkscape:path-effect
       effect="dashed_stroke"
       id="path-effect7"
       is_visible="true"
       lpeversion="1"
       numberdashes="3"
       holefactor="0"
       splitsegments="true"
       halfextreme="true"
       unifysegment="true"
       message="Добавить &lt;b&gt;«Заливку между многими LPE»&lt;/b&gt; для заливки." />
  </defs>
  <g
     inkscape:label="Слой 1"
     inkscape:groupmode="layer"
     id="layer1">
    <circle
       id="path2"
       style="fill:#000000;stroke:#000000;stroke-width:0.264583"
       cx="45.878048"
       cy="58.986061"
       r="0.045946702" />
    <circle
       id="path5"
       style="fill:#000000;stroke:#000000;stroke-width:0.264583"
       cx="206.27875"
       cy="139.70383"
       r="0.045946702" />
    <circle
       id="path6"
       style="fill:#000000;stroke:#000000;stroke-width:0.264583"
       cx="112.45296"
       cy="87.961678"
       r="0.045946702" />
    <path
       style="fill:#000000;stroke-width:0.264583"
       d="m 52.029316,200 c 0,0 -1.325709,-2.04596 -1.325687,-3.5775 2.2e-5,-1.53167 5.076576,3.57813 8.011544,3.57813 2.934968,0 -8.011439,-11.01806 -8.011417,-12.54945 2.1e-5,-1.53139 13.989323,12.54945 16.923829,12.54945 2.934506,0 -16.923725,-19.98804 -16.923703,-21.51916 2.2e-5,-1.53111 22.900668,21.51916 25.834712,21.51916 2.934044,0 -25.834607,-28.95641 -25.834586,-30.48724 2.2e-5,-1.53084 31.81061,30.48724 34.744193,30.48724 2.933582,0 -34.744088,-37.92315 -34.744066,-39.45371 2.1e-5,-1.53056 40.71915,39.45371 43.652271,39.45371 2.933121,0 -43.652167,-46.88829 -43.652145,-48.41857 2.2e-5,-1.53029 49.626289,48.41857 52.558949,48.41857 2.93266,0 -52.558844,-55.85181 -52.558823,-57.38181 2.2e-5,-1.53001 58.532033,57.38181 61.464223,57.38181 2.9322,0 -61.464118,-64.81371 -61.464096,-66.34345 2.1e-5,-1.52973 67.436366,66.34345 70.368106,66.34345 2.93174,0 -70.368002,-73.77401 -70.36798,-75.30347 2.2e-5,-1.52946 76.33931,75.30347 79.27058,75.30347 2.93128,0 -79.270475,-82.73269 -79.270454,-84.26188 2.2e-5,-1.52918 85.240844,84.26188 88.171664,84.26188 2.93082,0 -88.171559,-91.68976 -88.171537,-93.21867 2.1e-5,-1.52891 94.140987,93.21867 97.071347,93.21867 2.93036,0 -97.071243,-100.64523 -97.071221,-102.173864 2.1e-5,-1.528635 103.039731,102.173864 105.969631,102.173864 2.9299,0 -105.969527,-109.599086 -105.969505,-111.127446 2.2e-5,-1.52836 111.937085,111.127446 114.866525,111.127446 2.92943,0 -114.86642,-118.551335 -114.866399,-120.079421 2.2e-5,-1.528086 120.833039,120.079421 123.762019,120.079421 2.92898,0 -123.761914,-127.501977 -123.761893,-129.029789 2.2e-5,-1.527811 129.727593,129.029789 132.656113,129.029789 2.92852,0 -132.656008,-136.451013 -132.655987,-137.978551 2.2e-5,-1.527538 138.620757,137.978551 141.548817,137.978551 2.92806,0 -141.548712,-145.398445 -141.54869,-146.925709 2.1e-5,-1.527264 148.04664,147.463219 148.7563,145.231139 C 200.17161,196.07398 55.727544,50.710099 57.244937,50.710118 58.76233,50.710137 200.00076,192.84741 200.00076,189.90167 c 0,-2.94574 -135.385141,-139.19146 -133.867985,-139.191441 1.517155,1.9e-5 133.867985,133.191621 133.867985,130.246411 0,-2.94521 -126.498457,-130.246319 -124.981539,-130.2463 1.516918,1.8e-5 124.981539,124.24756 124.981539,121.30287 0,-2.94469 -117.613164,-121.302779 -116.096484,-121.30276 1.516681,1.9e-5 116.096484,115.30509 116.096484,112.36093 0,-2.94416 -108.729261,-112.360838 -107.212818,-112.360819 1.516443,1.9e-5 107.212818,106.364229 107.212818,103.420599 0,-2.94364 -99.84675,-103.420507 -98.33054,-103.420488 1.5162,1.9e-5 98.33054,97.424968 98.33054,94.481858 0,-2.94311 -90.96562,-94.481766 -89.44965,-94.481747 1.51596,1.9e-5 89.44965,88.487297 89.44965,85.544717 0,-2.94258 -82.08589,-85.544625 -80.57016,-85.544606 1.51574,1.9e-5 80.57016,79.551236 80.57016,76.609176 0,-2.94205 -73.20754,-76.609084 -71.69204,-76.609066 1.51549,1.9e-5 71.69204,70.616766 71.69204,67.675236 0,-2.94152 -64.33058,-67.675144 -62.81532,-67.675125 1.51526,1.9e-5 62.81532,61.683895 62.81532,58.742895 0,-2.941 -55.455,-58.742803 -53.93998,-58.742784 1.51502,1.9e-5 53.93998,52.752614 53.93998,49.812144 0,-2.940477 -46.58081,-49.812052 -45.06603,-49.812033 1.51479,1.9e-5 45.06603,43.822939 45.06603,40.882988 0,-2.939951 -37.70801,-40.882896 -36.19346,-40.882878 1.51455,1.9e-5 36.19346,34.894854 36.19346,31.955428 0,-2.939426 -28.83659,-31.955336 -27.32227,-31.955317 1.51431,1.9e-5 27.32227,25.968362 27.32227,23.029461 0,-2.938902 -19.96655,-23.029369 -18.45247,-23.02935 1.51408,1.9e-5 18.45247,17.043463 18.45247,14.105086 0,-2.938378 -11.09789,-14.104994 -9.58405,-14.104976 1.51384,1.9e-5 9.58405,8.120156 9.58405,5.182303 0,-2.938776 -3.64113,-5.894082 -3.64113,-5.894082 0,0 2.93428,3.659678 2.9343,5.182876 2e-5,1.523105 -6.66402,-5.182251 -9.584,-5.182251 -2.91998,0 9.5841,12.581665 9.58413,14.105042 2e-5,1.523377 -15.53199,-14.105042 -18.45243,-14.105042 -2.92044,0 18.45253,21.505776 18.45255,23.029425 2e-5,1.523649 -24.40134,-23.029425 -27.32223,-23.029425 -2.9209,0 27.32234,30.43148 27.32236,31.9554 2e-5,1.523921 -33.27208,-31.9554 -36.19343,-31.9554 -2.92135,0 36.19353,39.358776 36.19356,40.882969 2e-5,1.524192 -42.1442,-40.882969 -45.06601,-40.882969 -2.92181,0 45.06611,48.287666 45.06613,49.812131 2e-5,1.524464 -51.0177,-49.81213 -53.93997,-49.81213 -2.92226,0 53.94008,57.218154 53.9401,58.742884 2e-5,1.52474 -59.8926,-58.742884 -62.81532,-58.742884 -2.92272,0 62.81542,66.150234 62.81544,67.675244 3e-5,1.52501 -68.76887,-67.675244 -71.69204,-67.675244 -2.92318,0 71.69215,75.083904 71.69217,76.609194 2e-5,1.52528 -77.64654,-76.609194 -80.57017,-76.609194 -2.92363,0 80.57028,84.019184 80.5703,85.544734 2e-5,1.52556 -86.52559,-85.544734 -89.44968,-85.544734 -2.92409,0 89.44978,92.956054 89.4498,94.481884 3e-5,1.52583 -95.40602,-94.481883 -98.33057,-94.481883 -2.924544,0 98.33068,101.894533 98.3307,103.420633 2e-5,1.5261 -104.287853,-103.420633 -107.212857,-103.420633 -2.925003,0 107.212967,110.834603 107.212987,112.360973 2e-5,1.52638 -113.171073,-112.360973 -116.096534,-112.360973 -2.925461,0 116.096634,119.776273 116.096654,121.302923 2e-5,1.52665 -122.055673,-121.302923 -124.981592,-121.302923 -2.925918,0 124.981702,128.719543 124.981722,130.246473 2e-5,1.52692 -130.941673,-130.246473 -133.86805,-130.246473 -2.926376,0 133.86816,137.664423 133.86818,139.191623 2e-5,1.52719 -139.829064,-139.191622 -142.755899,-139.191622 -2.926835,0 142.585099,146.438922 142.217209,147.596122 C 198.38925,198.75396 50.000764,49.419591 50.000764,52.365544 c 0,2.945953 143.066876,146.925876 141.548886,146.925886 -1.51799,2e-5 -141.548886,-140.92509 -141.548886,-137.978609 0,2.946481 134.174396,137.978709 132.656176,137.978729 -1.51823,1e-5 -132.656176,-131.976858 -132.656176,-129.029848 0,2.94701 125.280536,129.029938 123.762066,129.029958 -1.51846,2e-5 -123.762065,-123.02701 -123.762065,-120.079471 0,2.947539 116.385265,120.079561 114.866565,120.079581 -1.5187,2e-5 -114.866565,-114.075555 -114.866565,-111.127487 0,2.948067 107.488605,111.127577 105.969665,111.127597 -1.51894,2e-5 -105.969665,-105.122494 -105.969665,-102.173897 0,2.948597 98.590555,102.173987 97.071375,102.174007 -1.51918,2e-5 -97.071375,-96.16782 -97.071375,-93.2187 0,2.94913 89.691095,93.21879 88.171685,93.21881 -1.51942,2e-5 -88.171684,-87.21155 -88.171684,-84.26189 0,2.94966 80.790244,84.26198 79.270594,84.262 -1.51966,2e-5 -79.270594,-78.25366 -79.270594,-75.30347 0,2.95019 71.888004,75.30357 70.368104,75.30359 -1.51989,1e-5 -70.368104,-69.29417 -70.368104,-66.34345 0,2.95072 62.984354,66.34354 61.464224,66.34356 -1.52014,2e-5 -61.464224,-60.33306 -61.464224,-57.38181 0,2.95125 54.079304,57.3819 52.558934,57.38192 -1.52037,2e-5 -52.558933,-51.37034 -52.558933,-48.41856 0,2.95178 45.17286,48.41865 43.652248,48.41867 -1.520611,2e-5 -43.652248,-42.406 -43.652248,-39.45369 0,2.95231 36.265012,39.45378 34.744162,39.4538 -1.520851,2e-5 -34.744162,-33.44005 -34.744162,-30.48721 0,2.95284 27.355763,30.4873 25.834673,30.48732 -1.52109,2e-5 -25.834672,-24.47249 -25.834672,-21.51912 0,2.95338 18.445111,21.51922 16.923782,21.51923 -1.52133,2e-5 -16.923782,-15.50331 -16.923782,-12.5494 0,2.9539 9.533057,12.5495 8.011488,12.54952 -1.521569,2e-5 -8.011488,-6.53252 -8.011488,-3.57808 0,2.9535 2.028548,4.28497 2.028548,4.28497 z"
       id="path7"
       inkscape:path-effect="#path-effect9"
       inkscape:original-d="M 50,50 V 200 H 200 L 200,50 Z"
       sodipodi:nodetypes="ccccc" />
    <circle
       style="fill:#ffffff;stroke-width:0.264583"
       id="path9"
       cx="85"
       cy="95"
       r="15" />
    <circle
       style="fill:#ffffff;stroke-width:0.264583"
       id="circle9"
       cx="85"
       cy="95"
       r="15" />
    <text
       xml:space="preserve"
       style="font-size:14.1111px;white-space:pre;inline-size:10;display:inline;fill:#000000;stroke-width:0.264583"
       x="80"
       y="90"
       id="text9"
       transform="translate(0.17686646,10.129747)"><tspan
         x="80"
         y="90"
         id="tspan1">A</tspan></text>
    <path
       style="fill:#000000;stroke-width:0.264583"
       d="m 50,50 v 150 0 0"
       id="path11" />
    <path
       style="fill:#000000;stroke-width:0.264583"
       d="M 200,50 V 200"
       id="path12" />
    <circle
       id="path13"
       style="fill:#000000;stroke:#000000;stroke-width:0.264583"
       cx="50.270832"
       cy="200.02499"
       r="0.070484482" />
    <path
       style="fill:#000000;stroke-width:2.465;fill-opacity:0;stroke:#000000;stroke-opacity:1;stroke-dasharray:none"
       d="m 50,50 c 0.270833,150.09547 0.270833,150.09547 0.270833,150.09547 L 200,200 V 50 Z"
       id="path14" />
    <ellipse
       style="fill:#000000;fill-opacity:0;stroke:#000000;stroke-width:2.65507;stroke-dasharray:none;stroke-opacity:1"
       id="path15"
       cx="85"
       cy="94.768745"
       rx="15.000002"
       ry="14.768748" />
  </g>
</svg>
